<?xml version="1.0" standalone="no"?>
<!DOCTYPE svg PUBLIC "-//W3C//DTD SVG 20010904//EN"
 "http://www.w3.org/TR/2001/REC-SVG-20010904/DTD/svg10.dtd">
<svg version="1.0" xmlns="http://www.w3.org/2000/svg"
 width="300.000000pt" height="104.000000pt" viewBox="0 0 300.000000 104.000000"
 preserveAspectRatio="xMidYMid meet">

<g transform="translate(0.000000,104.000000) scale(0.100000,-0.100000)"
fill="#000000" stroke="none">
<path d="M0 685 l0 -345 205 0 205 0 0 345 0 345 -205 0 -205 0 0 -345z m398
3 l-3 -333 -192 -3 -193 -2 0 335 0 335 195 0 195 0 -2 -332z"/>
<path d="M148 886 c4 -46 -25 -418 -35 -442 -4 -10 3 -14 23 -14 35 0 53 11
52 30 -3 41 3 60 18 60 13 0 15 -8 12 -40 l-4 -40 48 0 c43 0 47 2 39 18 -11
19 -44 450 -35 463 3 5 -23 9 -58 9 l-63 0 3 -44z m68 -303 c-14 -36 -24 5
-18 72 l6 70 9 -63 c5 -34 6 -70 3 -79z"/>
<path d="M604 933 c-79 -168 -93 -201 -87 -207 4 -3 18 -6 33 -6 19 0 30 7 38
25 10 22 18 25 67 25 47 0 57 -3 71 -25 11 -17 25 -25 45 -25 16 0 29 3 29 8
1 16 -133 302 -141 302 -5 0 -30 -44 -55 -97z m110 -68 c27 -58 46 -108 43
-111 -3 -3 -8 4 -12 15 -6 19 -14 21 -85 21 -70 0 -81 -2 -90 -21 -7 -11 -14
-19 -16 -16 -6 6 97 217 105 217 3 0 28 -47 55 -105z"/>
<path d="M619 875 c-17 -36 -29 -68 -26 -71 2 -3 34 -4 71 -2 l66 3 -32 68
c-17 37 -35 67 -39 67 -5 0 -23 -29 -40 -65z m61 -32 c0 -7 -11 -13 -25 -13
-29 0 -29 0 -13 35 11 25 13 26 25 9 7 -10 13 -24 13 -31z"/>
<path d="M860 875 l0 -155 30 0 c29 0 30 1 31 53 1 28 4 65 8 80 6 28 6 27 86
-53 44 -44 85 -80 93 -80 10 0 12 32 10 148 l-3 147 -32 3 -33 3 0 -75 c0 -42
-3 -76 -8 -76 -4 0 -43 36 -87 80 -44 44 -83 80 -87 80 -5 0 -8 -70 -8 -155z
m225 -93 c-3 -3 -38 26 -78 64 -123 119 -113 117 -112 21 1 -45 5 -91 8 -102
5 -15 2 -21 -11 -22 -15 -1 -17 9 -14 105 2 59 7 110 10 114 4 4 47 -31 96
-78 50 -46 92 -84 94 -84 2 0 3 19 2 43 -2 23 -1 67 1 97 2 35 4 18 6 -49 2
-57 1 -106 -2 -109z"/>
<path d="M2154 1021 c-30 -13 -54 -50 -54 -84 0 -30 22 -54 80 -91 21 -13 35
-30 35 -41 0 -20 -6 -21 -74 -13 -14 2 -28 -4 -35 -14 -17 -28 14 -51 78 -56
51 -4 57 -2 86 26 54 54 39 106 -45 153 -54 31 -69 54 -40 65 8 3 29 -1 46
-10 24 -12 35 -13 45 -5 20 16 17 47 -5 58 -28 16 -93 22 -117 12z m87 -27
c17 -8 28 -18 25 -22 -4 -3 -12 0 -18 6 -17 17 -83 15 -98 -2 -23 -29 -7 -59
55 -101 42 -29 61 -48 63 -66 2 -23 2 -23 -10 4 -7 15 -37 42 -68 60 -30 18
-56 41 -58 51 -6 31 7 62 30 74 32 15 44 14 79 -4z m9 -234 c-24 -15 -36 -11
-14 4 10 8 21 12 24 10 2 -3 -2 -9 -10 -14z m-69 -6 l34 -15 -35 6 c-19 3 -39
10 -44 15 -15 15 7 12 45 -6z"/>
<path d="M2444 1011 c-101 -47 -123 -170 -45 -245 42 -40 59 -23 22 20 -62 71
-48 156 33 195 58 29 104 20 145 -27 36 -41 42 -98 14 -145 -22 -37 -88 -70
-128 -64 l-30 5 29 -16 c52 -29 128 3 161 66 23 44 19 111 -7 150 -50 73 -121
96 -194 61z"/>
<path d="M2735 1019 c-3 -8 -4 -78 -3 -154 l3 -140 33 -3 32 -3 0 81 0 82 88
-81 c49 -45 92 -81 95 -81 4 0 7 68 7 150 l0 150 -35 0 -35 0 0 -77 0 -77 -57
55 c-111 105 -122 113 -128 98z m231 -91 c2 -29 0 -75 -4 -102 l-7 -50 -93 88
-92 88 0 -94 c0 -57 4 -98 11 -105 9 -9 7 -12 -10 -10 -14 1 -20 6 -16 15 3 7
5 59 5 114 0 60 4 98 10 96 5 -1 48 -41 95 -87 l85 -84 0 98 c0 104 9 123 16
33z"/>
<path d="M1202 873 l3 -148 60 -3 c33 -2 76 1 97 7 45 14 95 69 104 116 8 47
-18 117 -57 150 -28 23 -39 25 -120 25 l-90 0 3 -147z m167 113 c87 -45 85
-189 -3 -227 -17 -8 -54 -13 -83 -11 l-53 3 0 118 c0 65 3 121 7 124 12 13
104 7 132 -7z"/>
<path d="M1247 983 c-2 -5 -5 -56 -6 -115 l-3 -108 62 0 c55 0 65 3 91 29 24
25 29 38 29 79 0 59 -25 96 -73 110 -41 12 -94 15 -100 5z m113 -33 c11 -6 24
-27 29 -47 9 -30 7 -44 -7 -73 -15 -32 -21 -35 -64 -38 l-48 -3 0 85 0 86 36
0 c19 0 44 -5 54 -10z"/>
<path d="M1542 873 c2 -118 6 -148 17 -148 11 0 14 27 15 135 l1 135 70 3 c38
2 66 0 62 -5 -5 -4 -34 -8 -65 -8 l-57 0 -2 -52 -3 -53 57 0 c70 0 66 -9 -5
-11 l-52 -2 0 -54 0 -53 68 -1 c59 -1 63 -2 28 -9 -21 -4 -47 -5 -58 -2 -14 3
-17 0 -12 -12 7 -18 39 -22 49 -6 5 8 11 8 20 0 7 -5 23 -9 36 -7 19 3 24 10
24 33 0 28 -2 29 -40 27 -64 -4 -85 4 -85 32 0 22 4 24 53 27 50 3 52 4 52 33
0 29 -2 30 -52 33 -49 3 -53 5 -53 28 0 23 3 24 65 24 l65 0 0 30 0 30 -100 0
-101 0 3 -147z"/>
<path d="M1810 870 l0 -150 35 0 35 0 0 60 c0 77 16 78 55 2 28 -52 33 -57 68
-60 20 -2 37 0 37 5 -1 4 -14 32 -29 62 l-28 55 28 24 c39 32 41 91 4 127 -22
23 -32 25 -115 25 l-90 0 0 -150z m174 109 c23 -18 26 -27 24 -64 -2 -24 -5
-43 -8 -43 -38 3 -47 -30 -20 -81 11 -23 16 -41 11 -41 -5 0 -14 13 -21 29 -6
16 -20 37 -31 47 -10 9 -17 20 -14 23 2 4 -14 8 -36 9 l-39 3 -2 -58 c-1 -40
-3 -26 -7 42 -3 55 -4 112 -2 128 3 26 6 27 61 27 43 0 64 -5 84 -21z"/>
<path d="M1862 981 c-6 -3 -9 -27 -9 -53 l2 -48 50 0 c78 0 117 39 83 82 -13
16 -108 30 -126 19z m105 -37 c9 -24 -10 -49 -38 -50 -38 -2 -49 6 -49 37 0
27 3 29 40 29 28 0 43 -5 47 -16z"/>
<path d="M2460 972 c-20 -9 -44 -33 -54 -53 -18 -32 -18 -41 -7 -78 14 -50 58
-81 113 -81 53 0 108 53 108 105 0 91 -82 146 -160 107z m101 -41 c37 -38 39
-82 4 -116 -36 -37 -86 -34 -119 6 -30 35 -32 49 -10 90 28 54 82 63 125 20z"/>
<path d="M623 649 c-43 -13 -90 -62 -104 -110 -16 -52 0 -104 45 -148 40 -39
103 -51 174 -32 l42 12 0 63 c0 34 -2 65 -4 67 -3 2 -25 3 -50 1 -40 -4 -46
-7 -46 -27 0 -13 7 -25 15 -29 28 -10 15 -26 -20 -26 -80 0 -115 93 -54 144
34 29 43 31 88 15 27 -10 35 -8 52 7 l21 19 -27 22 c-14 13 -37 23 -50 23 -13
0 -29 2 -37 4 -7 2 -27 0 -45 -5z m101 -40 c6 -5 -3 -5 -22 0 -19 6 -45 6 -63
1 -40 -12 -82 -57 -76 -81 3 -11 1 -19 -4 -19 -27 0 15 -86 52 -105 15 -8 48
-15 74 -15 l45 0 0 40 c0 29 -4 40 -15 40 -8 0 -15 5 -15 11 0 6 8 9 18 7 13
-3 17 -14 17 -53 l0 -50 -58 -3 c-56 -3 -60 -2 -98 36 -45 46 -49 74 -19 137
24 51 70 77 120 69 19 -3 39 -10 44 -15z"/>
<path d="M1216 528 c-85 -179 -85 -178 -47 -178 19 0 35 8 45 22 12 17 28 23
71 26 51 3 56 1 67 -22 9 -20 18 -26 45 -26 18 0 33 4 33 8 0 14 -139 302
-146 302 -3 0 -34 -60 -68 -132z m124 -35 c28 -58 48 -108 46 -110 -2 -3 -9 5
-16 16 -9 19 -20 21 -90 21 -71 0 -79 -2 -85 -21 -4 -11 -9 -18 -12 -15 -5 5
96 216 103 216 3 0 27 -48 54 -107z"/>
<path d="M1252 515 c-18 -36 -32 -70 -32 -75 0 -6 31 -10 70 -10 l69 0 -27 58
c-49 101 -44 99 -80 27z m53 -54 c-4 -8 -45 -4 -45 5 0 2 5 15 12 29 l12 26
13 -26 c8 -14 11 -29 8 -34z"/>
<path d="M850 534 l0 -116 34 -34 c29 -29 41 -34 79 -34 110 0 137 38 137 193
l0 107 -35 0 -35 0 0 -96 c0 -113 -8 -134 -53 -134 -51 0 -57 13 -57 127 l0
103 -35 0 -35 0 0 -116z m67 -124 c34 -26 94 -27 118 -1 13 15 18 43 22 113 3
51 7 95 9 97 9 9 3 -158 -6 -186 -12 -34 -56 -63 -95 -63 -16 0 -38 12 -56 29
-28 29 -29 31 -27 128 l2 98 3 -97 c4 -91 5 -98 30 -118z"/>
<path d="M1490 625 c-48 -51 -23 -108 68 -157 57 -31 30 -73 -31 -50 -34 13
-57 2 -57 -28 0 -23 41 -40 96 -40 37 0 51 6 75 29 39 40 38 74 -4 115 -18 17
-47 39 -65 48 -39 21 -43 48 -6 48 14 0 35 -5 46 -11 18 -9 24 -8 35 7 7 10
13 23 13 29 0 19 -47 35 -99 35 -38 0 -52 -5 -71 -25z m130 -11 c14 -15 13
-15 -8 -5 -30 16 -82 10 -95 -10 -19 -31 1 -63 64 -102 56 -34 61 -40 55 -65
-14 -56 -72 -78 -126 -47 -30 17 -24 19 19 4 41 -15 75 -5 89 25 14 31 -5 59
-59 86 -52 27 -73 59 -60 94 6 14 15 26 21 26 6 0 9 4 6 9 -10 15 78 2 94 -15z"/>
<path d="M1746 619 c-43 -51 -29 -92 47 -135 61 -35 72 -70 22 -68 -16 1 -39
5 -51 8 -15 6 -23 2 -32 -18 -15 -34 4 -48 72 -54 65 -5 93 8 112 53 22 54 0
92 -76 130 -38 19 -52 34 -44 47 7 11 52 10 73 -2 14 -7 23 -4 37 11 18 21 18
21 -5 40 -16 13 -39 19 -76 19 -47 0 -56 -4 -79 -31z m111 6 c20 -8 33 -18 29
-22 -3 -4 -12 -1 -18 5 -22 22 -76 14 -93 -12 -23 -34 -7 -59 60 -97 50 -28
55 -34 55 -64 0 -55 -52 -79 -116 -55 -40 16 -25 20 23 7 37 -10 45 -9 63 8
35 32 23 65 -37 100 -63 37 -81 64 -65 100 10 20 34 39 60 44 1 1 19 -6 39
-14z"/>
<path d="M1990 534 l0 -116 34 -34 c29 -29 41 -34 79 -34 110 0 137 38 137
193 l0 107 -35 0 -35 0 0 -103 c0 -114 -6 -127 -55 -127 -49 0 -55 13 -55 127
l0 103 -35 0 -35 0 0 -116z m69 -125 c32 -26 92 -25 117 2 15 16 20 42 25 118
l6 96 1 -87 c2 -102 -7 -132 -47 -153 -44 -22 -75 -19 -110 14 -31 29 -31 29
-29 128 l2 98 5 -98 c5 -88 9 -101 30 -118z"/>
<path d="M990 233 c-29 -11 -50 -36 -50 -62 0 -25 1 -24 18 9 29 60 102 51
102 -12 0 -64 -40 -103 -80 -78 -12 8 -11 15 8 55 12 25 22 48 22 51 0 14 -22
-12 -40 -47 -13 -24 -27 -39 -39 -39 -21 0 -36 -26 -20 -35 5 -4 18 -4 28 0
10 3 31 1 46 -5 38 -14 71 9 85 59 19 71 -22 125 -80 104z"/>
<path d="M1357 213 c-8 -10 -24 -45 -35 -78 -30 -89 -32 -125 -7 -125 17 0 35
38 28 57 -3 8 3 13 16 13 12 0 30 14 46 37 26 39 28 38 25 -14 -2 -34 5 -39
30 -23 9 5 19 5 27 -2 10 -8 21 -8 40 1 20 9 28 9 34 0 4 -7 15 6 27 35 13 27
27 46 37 46 12 0 15 -5 9 -22 -16 -49 -11 -62 25 -64 34 -2 71 24 71 49 0 6
-9 1 -20 -13 -10 -14 -22 -22 -25 -18 -8 8 13 78 24 78 4 0 7 9 7 20 0 11 -2
20 -3 20 -10 0 -39 -38 -36 -47 5 -14 -26 -77 -34 -69 -3 3 0 19 6 37 13 39 8
49 -29 49 -24 0 -30 -6 -40 -35 -14 -41 -30 -46 -27 -9 3 38 -26 54 -52 30
-12 -11 -21 -24 -21 -31 0 -7 -10 -20 -21 -31 -21 -19 -22 -19 -14 4 7 25 -20
96 -34 87 -5 -2 -11 4 -14 15 -6 25 -19 25 -40 3z m22 -32 c-6 -17 -17 -35
-25 -42 -18 -15 -18 -7 0 36 19 43 40 48 25 6z m17 -50 c-10 -18 -24 -31 -36
-31 -17 0 -17 2 5 26 14 15 25 34 25 42 0 12 3 13 11 5 8 -8 6 -19 -5 -42z
m124 -6 c0 -24 -5 -35 -15 -35 -17 0 -20 23 -5 51 15 27 20 24 20 -16z m17 3
c-3 -8 -6 -5 -6 6 -1 11 2 17 5 13 3 -3 4 -12 1 -19z m-216 -101 c-13 -13 -15
11 -4 40 7 16 8 15 11 -6 2 -13 -1 -28 -7 -34z"/>
<path d="M2061 205 c-9 -24 -17 -31 -38 -30 -22 0 -32 -9 -51 -42 -13 -24 -28
-43 -33 -43 -6 0 -6 8 1 19 5 11 10 31 10 45 0 22 -5 26 -28 26 -22 0 -31 -8
-47 -42 -16 -33 -27 -44 -48 -46 -37 -4 -34 14 4 27 24 8 30 15 27 33 -7 53
-78 18 -78 -38 0 -30 20 -44 58 -41 26 2 34 8 42 33 12 35 45 70 54 56 3 -5 0
-25 -6 -45 -13 -41 -7 -53 19 -42 10 5 23 7 28 5 6 -1 27 -4 47 -6 30 -3 41 1
58 23 11 14 18 28 15 31 -2 3 -13 -6 -24 -19 -29 -36 -33 -19 -11 46 21 60 21
105 1 50z m-216 -56 c0 -8 -10 -15 -22 -17 -25 -4 -30 7 -11 26 15 15 33 10
33 -9z m187 -14 c-5 -29 -29 -52 -42 -39 -17 17 6 66 28 62 11 -2 16 -11 14
-23z"/>
<path d="M1096 158 c-35 -50 -8 -101 44 -81 18 7 32 7 38 1 6 -6 18 -5 33 3
13 7 30 15 38 19 8 3 17 13 20 21 3 12 1 12 -14 -1 -17 -14 -18 -13 -11 5 17
42 19 58 8 51 -7 -4 -12 -13 -12 -20 0 -17 -38 -66 -51 -66 -6 0 -8 8 -5 18 3
9 8 31 11 47 5 25 2 23 -18 -15 -17 -34 -30 -46 -50 -48 -37 -4 -34 14 4 27
24 8 30 15 27 33 -4 32 -41 36 -62 6z m49 -9 c0 -8 -10 -15 -22 -17 -25 -4
-30 7 -11 26 15 15 33 10 33 -9z"/>
<path d="M1733 143 c9 -2 23 -2 30 0 6 3 -1 5 -18 5 -16 0 -22 -2 -12 -5z"/>
</g>
</svg>
